<?xml version="1.0" encoding="UTF-8"?>
<svg version="1.1" viewBox="0 0 1908 1724" width="1280" height="1280" xmlns="http://www.w3.org/2000/svg">
<path transform="translate(347)" d="m0 0h343v60l1 112h140l27 1 5 2 1 4 1 167h178l1-3 1-163 2-5 5-2 20-1 146-1 1-171h343v127l1 46 2-1h139l23 1 6 3 2 3 1 13 1 153 3 1 168 1v506l-170 1-1 1-1 162-3 7-4 2-8 1-151 1h-7v167l-2 4-2 1-45 1h-124l-1 36v121l-1 12-6 3-6 1-18 1h-142v140l-1 27-2 4-10 2-162 1v175h-173l-1-9v-166l-164-1-7-2-2-5-1-166h-155l-11-1-5-3-2-8-1-162h-124l-41-1-5-3-2-3-1-5v-161l-2-1h-158l-9-2-3-3-1-3-1-15v-151l-172 1v-507l171-1 1-157 1-10 3-5 7-2 54-1h24l85 1z"/>
</svg>
